REM DIRINDEX 1\2\4,1\2\5,1\2\6,1\3\7,1\3\8
REM DIRNAME cjc128,folder01,folder02,folder03,folder04,folder05,folder06,folder07
TITLE ""
FILE "006_Lesson 05_Output_Stage.mp3" MP3
  TRACK 01 AUDIO
    TITLE "0:"
    INDEX 01 00:00:00
  TRACK 02 AUDIO
    TITLE "6:cjc128_0277"
    INDEX 01 00:00:11
  TRACK 03 AUDIO
    TITLE "0:"
    INDEX 01 00:03:04
  TRACK 04 AUDIO
    TITLE "6:cjc128_0278"
    INDEX 01 00:03:29
  TRACK 05 AUDIO
    TITLE "0:"
    INDEX 01 00:04:50
  TRACK 06 AUDIO
    TITLE "4:cjc128_0279"
    INDEX 01 00:05:36
  TRACK 07 AUDIO
    TITLE "0:"
    INDEX 01 00:08:26
  TRACK 08 AUDIO
    TITLE "5:cjc128_0280"
    INDEX 01 00:11:62
  TRACK 09 AUDIO
    TITLE "0:"
    INDEX 01 00:14:60
  TRACK 10 AUDIO
    TITLE "6:cjc128_0281"
    INDEX 01 00:15:38
  TRACK 11 AUDIO
    TITLE "0:"
    INDEX 01 00:16:61
  TRACK 12 AUDIO
    TITLE "4:cjc128_0282"
    INDEX 01 00:17:49
  TRACK 13 AUDIO
    TITLE "0:"
    INDEX 01 00:20:32
  TRACK 14 AUDIO
    TITLE "5:cjc128_0283"
    INDEX 01 00:22:74
  TRACK 15 AUDIO
    TITLE "0:"
    INDEX 01 00:25:05
  TRACK 16 AUDIO
    TITLE "6:cjc128_0284"
    INDEX 01 00:25:48
  TRACK 17 AUDIO
    TITLE "0:"
    INDEX 01 00:26:73
  TRACK 18 AUDIO
    TITLE "4:cjc128_0285"
    INDEX 01 00:27:59
  TRACK 19 AUDIO
    TITLE "0:"
    INDEX 01 00:29:68
  TRACK 20 AUDIO
    TITLE "5:cjc128_0286"
    INDEX 01 00:32:47
  TRACK 21 AUDIO
    TITLE "0:"
    INDEX 01 00:34:53
  TRACK 22 AUDIO
    TITLE "6:cjc128_0287"
    INDEX 01 00:35:37
  TRACK 23 AUDIO
    TITLE "0:"
    INDEX 01 00:36:64
  TRACK 24 AUDIO
    TITLE "4:cjc128_0288"
    INDEX 01 00:37:48
  TRACK 25 AUDIO
    TITLE "0:"
    INDEX 01 00:40:40
  TRACK 26 AUDIO
    TITLE "5:cjc128_0289"
    INDEX 01 00:43:66
  TRACK 27 AUDIO
    TITLE "0:"
    INDEX 01 00:46:53
  TRACK 28 AUDIO
    TITLE "6:cjc128_0290"
    INDEX 01 00:47:38
  TRACK 29 AUDIO
    TITLE "0:"
    INDEX 01 00:48:71
  TRACK 30 AUDIO
    TITLE "4:cjc128_0291"
    INDEX 01 00:49:57
  TRACK 31 AUDIO
    TITLE "0:"
    INDEX 01 00:52:61
  TRACK 32 AUDIO
    TITLE "5:cjc128_0292"
    INDEX 01 00:55:65
  TRACK 33 AUDIO
    TITLE "0:"
    INDEX 01 00:58:32
  TRACK 34 AUDIO
    TITLE "6:cjc128_0293"
    INDEX 01 00:59:14
  TRACK 35 AUDIO
    TITLE "0:"
    INDEX 01 01:00:43
  TRACK 36 AUDIO
    TITLE "4:cjc128_0294"
    INDEX 01 01:01:27
  TRACK 37 AUDIO
    TITLE "0:"
    INDEX 01 01:04:25
  TRACK 38 AUDIO
    TITLE "5:cjc128_0295"
    INDEX 01 01:08:03
  TRACK 39 AUDIO
    TITLE "0:"
    INDEX 01 01:11:07
  TRACK 40 AUDIO
    TITLE "6:cjc128_0296"
    INDEX 01 01:11:64
  TRACK 41 AUDIO
    TITLE "0:"
    INDEX 01 01:13:16
  TRACK 42 AUDIO
    TITLE "4:cjc128_0297"
    INDEX 01 01:13:69
  TRACK 43 AUDIO
    TITLE "0:"
    INDEX 01 01:17:14
  TRACK 44 AUDIO
    TITLE "5:cjc128_0298"
    INDEX 01 01:20:24
  TRACK 45 AUDIO
    TITLE "0:"
    INDEX 01 01:22:74
  TRACK 46 AUDIO
    TITLE "6:cjc128_0299"
    INDEX 01 01:23:56
  TRACK 47 AUDIO
    TITLE "0:"
    INDEX 01 01:24:73
  TRACK 48 AUDIO
    TITLE "4:cjc128_0300"
    INDEX 01 01:25:55
  TRACK 49 AUDIO
    TITLE "0:"
    INDEX 01 01:29:29
  TRACK 50 AUDIO
    TITLE "5:cjc128_0301"
    INDEX 01 01:32:29
  TRACK 51 AUDIO
    TITLE "0:"
    INDEX 01 01:34:65
  TRACK 52 AUDIO
    TITLE "6:cjc128_0302"
    INDEX 01 01:35:47
  TRACK 53 AUDIO
    TITLE "0:"
    INDEX 01 01:37:01
  TRACK 54 AUDIO
    TITLE "4:cjc128_0303"
    INDEX 01 01:37:52
  TRACK 55 AUDIO
    TITLE "0:"
    INDEX 01 01:40:68
  TRACK 56 AUDIO
    TITLE "5:cjc128_0304"
    INDEX 01 01:44:05
  TRACK 57 AUDIO
    TITLE "0:"
    INDEX 01 01:46:59
  TRACK 58 AUDIO
    TITLE "6:cjc128_0305"
    INDEX 01 01:47:35
  TRACK 59 AUDIO
    TITLE "0:"
    INDEX 01 01:48:56
  TRACK 60 AUDIO
    TITLE "4:cjc128_0306"
    INDEX 01 01:49:37
  TRACK 61 AUDIO
    TITLE "0:"
    INDEX 01 01:52:38
  TRACK 62 AUDIO
    TITLE "5:cjc128_0307"
    INDEX 01 01:55:16
  TRACK 63 AUDIO
    TITLE "0:"
    INDEX 01 01:57:35
  TRACK 64 AUDIO
    TITLE "6:cjc128_0308"
    INDEX 01 01:58:03
  TRACK 65 AUDIO
    TITLE "0:"
    INDEX 01 01:59:61
  TRACK 66 AUDIO
    TITLE "4:cjc128_0309"
    INDEX 01 02:00:33
  TRACK 67 AUDIO
    TITLE "0:"
    INDEX 01 02:03:38
  TRACK 68 AUDIO
    TITLE "5:cjc128_0310"
    INDEX 01 02:06:12
  TRACK 69 AUDIO
    TITLE "0:"
    INDEX 01 02:08:13
  TRACK 70 AUDIO
    TITLE "6:cjc128_0311"
    INDEX 01 02:08:72
  TRACK 71 AUDIO
    TITLE "0:"
    INDEX 01 02:10:65
  TRACK 72 AUDIO
    TITLE "4:cjc128_0312"
    INDEX 01 02:11:47
  TRACK 73 AUDIO
    TITLE "0:"
    INDEX 01 02:14:16
  TRACK 74 AUDIO
    TITLE "5:cjc128_0313"
    INDEX 01 02:16:50
  TRACK 75 AUDIO
    TITLE "0:"
    INDEX 01 02:18:35
  TRACK 76 AUDIO
    TITLE "6:cjc128_0314"
    INDEX 01 02:19:19
  TRACK 77 AUDIO
    TITLE "0:"
    INDEX 01 02:20:73
  TRACK 78 AUDIO
    TITLE "4:cjc128_0315"
    INDEX 01 02:21:49
  TRACK 79 AUDIO
    TITLE "0:"
    INDEX 01 02:24:61
  TRACK 80 AUDIO
    TITLE "5:cjc128_0316"
    INDEX 01 02:27:50
  TRACK 81 AUDIO
    TITLE "0:"
    INDEX 01 02:29:64
  TRACK 82 AUDIO
    TITLE "6:cjc128_0317"
    INDEX 01 02:30:34
  TRACK 83 AUDIO
    TITLE "0:"
    INDEX 01 02:32:25
  TRACK 84 AUDIO
    TITLE "4:cjc128_0318"
    INDEX 01 02:33:11
  TRACK 85 AUDIO
    TITLE "0:"
    INDEX 01 02:36:02
  TRACK 86 AUDIO
    TITLE "5:cjc128_0319"
    INDEX 01 02:38:46
  TRACK 87 AUDIO
    TITLE "0:"
    INDEX 01 02:40:50
  TRACK 88 AUDIO
    TITLE "6:cjc128_0320"
    INDEX 01 02:41:28
  TRACK 89 AUDIO
    TITLE "0:"
    INDEX 01 02:43:17
  TRACK 90 AUDIO
    TITLE "4:cjc128_0321"
    INDEX 01 02:43:68
  TRACK 91 AUDIO
    TITLE "0:"
    INDEX 01 02:46:47
  TRACK 92 AUDIO
    TITLE "5:cjc128_0322"
    INDEX 01 02:49:26
  TRACK 93 AUDIO
    TITLE "0:"
    INDEX 01 02:51:31
  TRACK 94 AUDIO
    TITLE "6:cjc128_0323"
    INDEX 01 02:52:12
  TRACK 95 AUDIO
    TITLE "0:"
    INDEX 01 02:54:04
  TRACK 96 AUDIO
    TITLE "4:cjc128_0324"
    INDEX 01 02:54:64
  TRACK 97 AUDIO
    TITLE "0:"
    INDEX 01 02:57:47
  TRACK 98 AUDIO
    TITLE "5:cjc128_0325"
    INDEX 01 03:00:10
  TRACK 99 AUDIO
    TITLE "0:"
    INDEX 01 03:02:19
  TRACK 100 AUDIO
    TITLE "6:cjc128_0326"
    INDEX 01 03:02:72
  TRACK 101 AUDIO
    TITLE "0:"
    INDEX 01 03:04:55
  TRACK 102 AUDIO
    TITLE "4:cjc128_0327"
    INDEX 01 03:05:41
  TRACK 103 AUDIO
    TITLE "0:"
    INDEX 01 03:08:74
  TRACK 104 AUDIO
    TITLE "5:cjc128_0328"
    INDEX 01 03:11:71
  TRACK 105 AUDIO
    TITLE "0:"
    INDEX 01 03:14:32
  TRACK 106 AUDIO
    TITLE "6:cjc128_0329"
    INDEX 01 03:15:10
  TRACK 107 AUDIO
    TITLE "0:"
    INDEX 01 03:16:58
  TRACK 108 AUDIO
    TITLE "4:cjc128_0330"
    INDEX 01 03:17:44
  TRACK 109 AUDIO
    TITLE "0:"
    INDEX 01 03:20:70
  TRACK 110 AUDIO
    TITLE "5:cjc128_0331"
    INDEX 01 03:24:03
  TRACK 111 AUDIO
    TITLE "0:"
    INDEX 01 03:26:29
  TRACK 112 AUDIO
    TITLE "6:cjc128_0332"
    INDEX 01 03:27:15
  TRACK 113 AUDIO
    TITLE "0:"
    INDEX 01 03:29:02
  TRACK 114 AUDIO
    TITLE "4:cjc128_0333"
    INDEX 01 03:29:51
  TRACK 115 AUDIO
    TITLE "0:"
    INDEX 01 03:32:43
  TRACK 116 AUDIO
    TITLE "5:cjc128_0334"
    INDEX 01 03:34:62
  TRACK 117 AUDIO
    TITLE "0:"
    INDEX 01 03:36:43
  TRACK 118 AUDIO
    TITLE "6:cjc128_0335"
    INDEX 01 03:37:25
  TRACK 119 AUDIO
    TITLE "0:"
    INDEX 01 03:38:71
  TRACK 120 AUDIO
    TITLE "4:cjc128_0336"
    INDEX 01 03:39:53
  TRACK 121 AUDIO
    TITLE "0:"
    INDEX 01 03:43:27
  TRACK 122 AUDIO
    TITLE "5:cjc128_0337"
    INDEX 01 03:46:36
  TRACK 123 AUDIO
    TITLE "0:"
    INDEX 01 03:49:03
  TRACK 124 AUDIO
    TITLE "6:cjc128_0338"
    INDEX 01 03:49:50
  TRACK 125 AUDIO
    TITLE "0:"
    INDEX 01 03:51:25
  TRACK 126 AUDIO
    TITLE "4:cjc128_0339"
    INDEX 01 03:52:09
  TRACK 127 AUDIO
    TITLE "0:"
    INDEX 01 03:55:13
  TRACK 128 AUDIO
    TITLE "5:cjc128_0340"
    INDEX 01 03:58:13
  TRACK 129 AUDIO
    TITLE "0:"
    INDEX 01 04:00:53
  TRACK 130 AUDIO
    TITLE "6:cjc128_0341"
    INDEX 01 04:01:31
  TRACK 131 AUDIO
    TITLE "0:"
    INDEX 01 04:03:13
  TRACK 132 AUDIO
    TITLE "4:cjc128_0342"
    INDEX 01 04:03:65
  TRACK 133 AUDIO
    TITLE "0:"
    INDEX 01 04:06:52
  TRACK 134 AUDIO
    TITLE "5:cjc128_0343"
    INDEX 01 04:09:07
  TRACK 135 AUDIO
    TITLE "0:"
    INDEX 01 04:11:04
